<svg xmlns="http://www.w3.org/2000/svg" viewBox="0 0 64 64" width="64" height="64">
  <rect x="2" y="2" width="60" height="60" rx="18" fill="#c39d4b" stroke="#ffb100" stroke-width="4" />
  
  <g transform="translate(10, 10) scale(1.83333)" fill="none" stroke="#ffffff" stroke-width="2" stroke-linejoin="round" stroke-linecap="round">
    <path d="m12 3-1.912 5.813a2 2 0 0 1-1.275 1.275L3 12l5.813 1.912a2 2 0 0 1 1.275 1.275L12 21l1.912-5.813a2 2 0 0 1 1.275-1.275L21 12l-5.813-1.912a2 2 0 0 1-1.275-1.275L12 3Z"/>
  </g>

  <g fill="none" stroke="#ffffff" stroke-width="3.5" stroke-linecap="round">
    <circle cx="22" cy="42" r="3" />
    <path d="M 40 22 h 8 M 44 18 v 8" />
  </g>
</svg>
